#!OML:ASF F:\VICON\USERDATA\INSTALL\rory3\rory3.ASF
:FULLY-SPECIFIED
:DEGREES
66
root 0.46870776319663304 17.366707379912732 23.273831515018035 -0.1908963806063051 1.6219931429352539 -1.6426037737625532
lfemur -21.46294156441266 1.2769000992459865 -24.73222619451046
ltibia 44.563589042826386
lfoot 0.8339239687629637 -8.909422671330427
ltoes -3.808081243504803
rfemur -10.757985201388284 2.123705828832127 26.27317768801207
rtibia 72.29573325507687
rfoot 4.575829766281879 -6.0358185452529
rtoes 0.20691336226198254
lowerback 14.53284461951013 0.4702158427099642 -0.5901693579548999
upperback -0.7468243371481511 1.246593560167282 0.4685230025841748
thorax -9.215856063597938 0.7915616651759761 0.5887100998439859
lowerneck -19.768306976362116 -4.552770060502399 -2.518179431482874
upperneck 12.287333319173946 -6.721044507627871 5.966107620996368
head 7.314584181228575 -2.7814399932577807 1.5556511941057354
lclavicle 2.9801537496917e-15 1.1901017953974073e-16
lhumerus -50.42781036690625 -12.855031794945058 95.88973937269523
lradius 110.91269620561216
lwrist 34.17787441141606
lhand -20.57141628883738 2.7697258925623918
lfingers 7.125019999999999
lthumb 5.773123926777371 32.572341906832825
rclavicle 2.9801019661137037e-15 1.1898187584741876e-16
rhumerus -45.147834559839815 14.683284637641417 -98.51014926997017
rradius 114.65522300453293
rwrist -15.151095679436908
rhand -15.67219464341474 38.55421209233496
rfingers 7.125019999999999
rthumb 10.737052388489676 8.339576572035744
67
root 0.4608161011254647 17.233087025974903 23.406905923124693 -0.024053146357382094 1.4112775130155975 -1.25135579492895
lfemur -20.15430468157784 1.259639373265203 -25.37965785907344
ltibia 46.50438526213649
lfoot 1.988538763769405 -8.458092603700386
ltoes -4.73931045290902
rfemur -13.838397293312891 1.6022361491959112 25.363834143636346
rtibia 73.30961330308827
rfoot 4.626049922802354 -5.770374796818391
rtoes 0.3284043357920361
lowerback 14.577128432935 0.25785906871516084 -1.0188276923499124
upperback -0.7067373601712643 0.9620891574511482 0.4216063300246726
thorax -9.253675389042636 0.6532305209598427 0.8311759086254811
lowerneck -19.863760968182508 -4.504674599060123 -2.5142282134831917
upperneck 12.332858055302564 -6.582450216448972 5.966053744514192
head 7.320070245175479 -2.739049161292746 1.5608530516722605
lclavicle 2.9801537496917e-15 1.1901017953974073e-16
lhumerus -48.822269106374726 -13.256211716541666 95.84587899369072
lradius 110.58578840449621
lwrist 34.038780509709866
lhand -20.587826665769636 2.722321594886015
lfingers 7.125019999999999
lthumb 5.729148162078689 32.47193730756535
rclavicle 2.9801019661137037e-15 1.1898187584741876e-16
rhumerus -46.261608584724094 13.944333864594581 -98.85330357943593
rradius 114.71963734098856
rwrist -15.215842454918107
rhand -15.721781798819922 38.5415628681424
rfingers 7.125019999999999
rthumb 10.706667259487002 8.331053308218578
68
root 0.4643548704737147 17.17522009149294 24.56931078716542 0.31883866309582487 1.4295677692189244 -0.7472963102383368
lfemur -18.556327800098572 1.0871864093245913 -25.828689068804895
ltibia 46.55481614918273
lfoot 2.1915391578805483 -8.637671871791227
ltoes -5.798789465489634
rfemur -15.975722300643259 1.3619342655696147 24.940517113390253
rtibia 73.34355121090124
rfoot 4.567089309584137 -5.642174212213249
rtoes 0.04370020956335341
lowerback 14.595180808865672 0.0793472436331355 -1.2220679909101215
upperback -0.727766823828129 0.6172610906783199 0.40996627197285807
thorax -9.311311713200272 0.494152731475548 0.9941672647774427
lowerneck -20.019254442161607 -4.501378884328993 -2.5225300818525125
upperneck 12.35160601090986 -6.458831847131648 5.884157248969168
head 7.332715529266272 -2.697637859024913 1.566053586515761
lclavicle 2.9801537496917e-15 1.1901017953974073e-16
lhumerus -48.353929957248546 -13.764577821396928 95.56959331963586
lradius 110.59899354443714
lwrist 33.97981778039355
lhand -20.60573724649391 2.7302565360573836
lfingers 7.125019999999999
lthumb 5.724458134954053 32.51121571093071
rclavicle 2.9801019661137037e-15 1.1898187584741876e-16
rhumerus -47.53243746445106 13.154474729114336 -99.14907794462408
rradius 114.79572347996678
rwrist -15.266643625991557
rhand -15.697793054928228 38.56063712984167
rfingers 7.125019999999999
rthumb 10.773440021945046 8.356851820207885
69
root 0.47426356313393214 17.171153044921095 25.86157348481542 0.6658311605545153 1.5472102067858848 -0.3037017652097651
lfemur -15.959483736892706 1.2144423435118772 -25.953705232214173
ltibia 45.57924750881361
lfoot 2.538636789453726 -9.0905472342714
ltoes -7.132717468919284
rfemur -19.350258820585243 1.2815425349659295 24.81889002274669
rtibia 72.44598849124978
rfoot 4.0380611155450055 -5.493321400652052
rtoes -0.8423953144519376
lowerback 14.53775336253964 -0.10782190474277553 -1.3216933121801007
upperback -0.7873815145770117 0.2246495573679108 0.4538499865577478
thorax -9.3309824573378 0.31276565504715165 1.0276850654326304
lowerneck -20.081850557391796 -4.422658489499718 -2.5151249393039854
upperneck 12.440555157639734 -6.269756366984421 5.804992893030063
head 7.339783880872612 -2.652772839447839 1.5699101283227854
lclavicle 2.9801537496917e-15 1.1901017953974073e-16
lhumerus -47.35478169270249 -13.777037350461951 95.4632943533872
lradius 110.79482316126429
lwrist 33.89586941638258
lhand -20.609362773365323 2.738107858449376
lfingers 7.125019999999999
lthumb 5.643628299049054 32.45240504692572
rclavicle 2.9801019661137037e-15 1.1898187584741876e-16
rhumerus -49.03994010783558 12.371329556627053 -99.39654164257897
rradius 114.86597426198028
rwrist -15.222066317438008
rhand -15.743899665591611 38.55760834136083
rfingers 7.125019999999999
rthumb 10.765362811883804 8.33132508235239
